<?xml version="1.0" encoding="UTF-8" standalone="no"?>
<svg
   xmlns:dc="http://purl.org/dc/elements/1.1/"
   xmlns:cc="http://creativecommons.org/ns#"
   xmlns:rdf="http://www.w3.org/1999/02/22-rdf-syntax-ns#"
   xmlns:svg="http://www.w3.org/2000/svg"
   xmlns="http://www.w3.org/2000/svg"
   id="svg8"
   version="1.1"
   viewBox="0 0 210 297"
   height="297mm"
   width="210mm">
  <defs
     id="defs2" />
  <metadata
     id="metadata5">
    <rdf:RDF>
      <cc:Work
         rdf:about="">
        <dc:format>image/svg+xml</dc:format>
        <dc:type
           rdf:resource="http://purl.org/dc/dcmitype/StillImage" />
        <dc:title></dc:title>
      </cc:Work>
    </rdf:RDF>
  </metadata>
  <g
     id="layer1">
    <path
       transform="matrix(9.5421254,1.3920282,-1.3920282,9.5421254,-789.46453,-495.7111)"
       d="m 104.90329,57.1256 -5.556377,0.804035 -3.474504,-4.409948 2.081874,-5.213982 5.556377,-0.804035 3.47451,4.409947 z"
       id="path823"
       style="opacity:1;fill:#1a1a1a;fill-opacity:1;stroke:none;stroke-width:0.098;stroke-miterlimit:4;stroke-dasharray:none;stroke-opacity:1" />
    <g
       transform="translate(3.430818,99.289097)"
       id="text817"
       style="font-style:normal;font-variant:normal;font-weight:normal;font-stretch:normal;font-size:50.79999924px;line-height:1.25;font-family:'Eras Bold ITC';-inkscape-font-specification:'Eras Bold ITC, Normal';font-variant-ligatures:normal;font-variant-caps:normal;font-variant-numeric:normal;font-feature-settings:normal;text-align:start;letter-spacing:0px;word-spacing:0px;writing-mode:lr-tb;text-anchor:start;fill:#ffffff;fill-opacity:1;stroke:none;stroke-width:0.26458332"
       aria-label="EV">
      <path
         id="path825"
         style="font-style:normal;font-variant:normal;font-weight:normal;font-stretch:normal;font-size:50.79999924px;font-family:'Eras Bold ITC';-inkscape-font-specification:'Eras Bold ITC, Normal';font-variant-ligatures:normal;font-variant-caps:normal;font-variant-numeric:normal;font-feature-settings:normal;text-align:start;writing-mode:lr-tb;text-anchor:start;stroke-width:0.26458332;fill:#ffffff"
         d="m 67.937254,66.156807 c 0.413411,-4.266406 0.711068,-7.838281 0.892969,-10.715625 0.198437,-2.877343 0.388607,-6.697265 0.570508,-11.459765 0.198437,-4.779037 0.297656,-7.945769 0.297656,-9.500196 l -0.02481,-2.182812 c 3.902605,0.03307 8.623764,0.04961 14.163477,0.04961 5.109765,0 9.61595,-0.01654 13.518554,-0.04961 l -0.04961,0.818555 c -0.01654,0.198437 -0.05788,0.917773 -0.124024,2.158007 l -0.148828,2.703711 c -0.03307,0.578776 -0.04961,1.16582 -0.04961,1.761133 -3.191537,-0.132291 -5.870443,-0.198437 -8.036719,-0.198437 -2.38125,0 -3.993555,0.0083 -4.836914,0.0248 -0.826823,0 -2.124935,0.03307 -3.894336,0.09922 l -0.297656,5.680273 c 1.951302,0.04961 4.225065,0.07441 6.821289,0.07441 0.926042,0 3.389974,-0.05788 7.391797,-0.173633 -0.165365,2.116667 -0.322461,4.638476 -0.471289,7.565429 -2.860807,-0.03307 -5.060156,-0.04961 -6.598047,-0.04961 -2.282031,0 -4.836914,0.05788 -7.664648,0.173633 l -0.297656,6.027539 h 2.852539 c 0.843359,0 2.587956,-0.0248 5.233789,-0.07441 l 5.151274,0.03467 c 0.760677,-0.01653 6.635677,0.148418 8.421611,0.03271 l 2.54729,7.141387 c -4.034897,-0.03312 -16.120176,0.0094 -20.932285,0.0094 l -10.914062,0.0248 z" />
      <path
         id="path827"
         style="font-style:normal;font-variant:normal;font-weight:normal;font-stretch:normal;font-size:50.79999924px;font-family:'Eras Bold ITC';-inkscape-font-specification:'Eras Bold ITC, Normal';font-variant-ligatures:normal;font-variant-caps:normal;font-variant-numeric:normal;font-feature-settings:normal;text-align:start;writing-mode:lr-tb;text-anchor:start;stroke-width:0.26458332;fill:#ffffff"
         d="M 105.90678,66.123398 104.98901,63.097226 98.936655,45.659531 94.240974,32.315113 c 2.315776,-0.05045 4.183056,-5.03e-4 5.935926,-5.03e-4 1.07487,0 2.76158,-0.01654 5.06015,-0.04961 0.38034,1.471745 0.678,2.587956 0.89297,3.348633 0.29766,0.992187 0.8599,2.786393 1.68672,5.382617 l 3.64629,11.732617 c 0.3638,1.223698 0.81028,2.819466 1.33945,4.787305 l 1.14102,-2.85254 8.65683,-18.95078 c 0.14883,-0.347266 0.3142,-0.744141 0.4961,-1.190625 0.19843,-0.446485 0.50436,-1.198894 0.91777,-2.257227 2.39779,0.03307 4.32428,0.04961 5.77949,0.04961 0.90951,0 2.71198,-0.01654 5.40742,-0.04961 -1.68671,3.141927 -3.59667,6.813021 -5.72988,11.013281 l -8.55762,16.966406 c -0.82682,1.653646 -1.75286,3.613216 -2.77812,5.878711 -2.77813,-0.03307 -4.7625,-0.04961 -5.95313,-0.04961 -1.10794,0 -3.1998,0.01654 -6.27558,0.04961 z" />
    </g>
  </g>
</svg>
